# xmcd CD database file
#
# Track frame offsets:
#	150
#	23375
#	44520
#	63882
#
# Disc length: 1158 seconds
#
# Revision: 0
# Processed by: cddbd v1.5PL3 Copyright (c) Steve Scherf et al.
# Submitted via: CDex 1.50beta9
#
DISCID=26048404
DTITLE=TOMOYASU HOTEI - NOBODY IS PERFECT
DYEAR=1999
DGENRE=Rock
TTITLE0=Nobody Is Perfect
TTITLE1=Nobody Is Perfect（ＲｏｃｋＭｉｘ）
TTITLE2=SLASH!CRASH!FLASH!
TTITLE3=Nobody Is Perfect（Ｉｎｓｔｒｕｍｅｎｔａｌ）
EXTD=YEAR: 1999
EXTT0=
EXTT1=
EXTT2=
EXTT3=
PLAYORDER=
